<svg width="60" height="60" viewBox="0 0 60 60" fill="none" xmlns="http://www.w3.org/2000/svg">
<path d="M47.2389 42.25C50.2601 41.6332 52.9456 39.9095 54.774 37.4137C56.6025 34.9179 57.4434 31.828 57.1336 28.7438C56.8237 25.6596 55.3853 22.8012 53.0974 20.7235C50.8096 18.6457 47.8355 17.4969 44.7527 17.5H41.62C40.7963 14.2933 39.1935 11.3425 36.9555 8.91248C34.7175 6.48247 31.9144 4.64934 28.7979 3.57767C25.6813 2.50601 22.3489 2.22935 19.0998 2.77254C15.8506 3.31573 12.7865 4.66176 10.1824 6.68979C7.57843 8.71782 5.51603 11.3644 4.18043 14.3918C2.84483 17.4192 2.27783 20.7328 2.53034 24.035C2.78286 27.3372 3.84697 30.5246 5.62716 33.3112C7.40734 36.0977 9.84786 38.3961 12.7296 40M32.3214 27.5L22.3763 42.5H37.2939L27.3488 57.5" stroke="#8CA70A" stroke-width="3.5" stroke-linecap="round" stroke-linejoin="round"/>
</svg>
