<svg width="61" height="60" viewBox="0 0 61 60" fill="none" xmlns="http://www.w3.org/2000/svg">
<g clip-path="url(#clip0_56_647)">
<path d="M40.0728 32.5V52.5M20.0364 32.5V52.5M30.0546 37.5V57.5M50.091 41.45C52.7239 40.299 54.88 38.2789 56.1973 35.7289C57.5147 33.1788 57.9131 30.254 57.3257 27.4455C56.7383 24.6369 55.2008 22.1155 52.9714 20.3046C50.7419 18.4937 47.9563 17.5034 45.0819 17.5H41.9262C41.1323 14.4313 39.6191 11.5949 37.5114 9.22452C35.4037 6.85415 32.7619 5.01771 29.8036 3.86657C26.8453 2.71543 23.6552 2.28256 20.4964 2.60362C17.3376 2.92469 14.3005 3.99051 11.6353 5.71322C8.97021 7.43594 6.75339 9.76622 5.16761 12.512C3.58183 15.2578 2.67249 18.3404 2.51455 21.5059C2.35661 24.6713 2.95459 27.8289 4.25921 30.7184C5.56382 33.6079 7.5377 36.1465 10.0182 38.125" stroke="#0B592F" stroke-width="4" stroke-linecap="round" stroke-linejoin="round"/>
</g>
<defs>
<clipPath id="clip0_56_647">
<rect width="60.1093" height="60" fill="white"/>
</clipPath>
</defs>
</svg>
