<svg width="61" height="60" viewBox="0 0 61 60" fill="none" xmlns="http://www.w3.org/2000/svg">
<path d="M45.2459 25H42.0787C41.1382 21.3775 39.195 18.09 36.4698 15.511C33.7446 12.932 30.3467 11.165 26.6622 10.4107C22.9777 9.6564 19.1543 9.9451 15.6266 11.244C12.0988 12.5429 9.00805 14.7998 6.70557 17.7585C4.40309 20.7171 2.98118 24.2587 2.60141 27.9809C2.22164 31.7031 2.89924 35.4566 4.55721 38.8149C6.21518 42.1732 8.78704 45.0017 11.9806 46.9789C15.1741 48.9561 18.8612 50.0028 22.6229 50H45.2459C48.5792 50 51.776 48.683 54.133 46.3388C56.49 43.9946 57.8142 40.8152 57.8142 37.5C57.8142 34.1848 56.49 31.0054 54.133 28.6612C51.776 26.317 48.5792 25 45.2459 25Z" stroke="#936440" stroke-width="3.5" stroke-linecap="round" stroke-linejoin="round"/>
</svg>
