<svg width="40" height="40" viewBox="0 0 40 40" fill="none" xmlns="http://www.w3.org/2000/svg">
<path fill-rule="evenodd" clip-rule="evenodd" d="M10.9613 1.18648C7.97935 9.82613 0 36.761 0 38.19C0 39.5953 4.47484 40 20 40C35.1239 40 40 39.5758 40 38.2584C40 34.0216 30.5987 6.50759 29.151 6.50759C28.2684 6.50759 26.1832 8.07755 24.5161 9.99638C22.849 11.9152 21.0335 13.4852 20.48 13.4852C19.9277 13.4852 18.3535 10.7402 16.9806 7.38537C14.249 0.707821 11.9458 -1.66456 10.9613 1.18648ZM7.99097 20.2702C5.72516 27.746 3.87097 34.6161 3.87097 35.5357C3.87097 36.747 8.32516 37.209 20 37.209C28.871 37.209 36.129 36.7401 36.129 36.1665C36.129 34.8394 29.489 12.9884 28.8426 12.1915C28.5781 11.8636 26.7381 13.2758 24.7548 15.3314C22.7716 17.3856 20.5432 19.0672 19.8026 19.0672C19.0619 19.0672 17.3961 16.5246 16.1006 13.4182C14.8052 10.3104 13.3781 7.52213 12.9277 7.2221C12.4787 6.92206 10.2568 12.793 7.99097 20.2702Z" fill="#0B592F"/>
</svg>
